{
    "asset" : {
        "generator" : "Khronos glTF Blender I/O v1.4.40",
        "version" : "2.0"
    },
    "scene" : 0,
    "scenes" : [
        {
            "name" : "Scene",
            "nodes" : [
                0,
                1,
                2,
                3,
                4,
                5
            ]
        }
    ],
    "nodes" : [
        {
            "mesh" : 0,
            "name" : "Cube",
            "translation" : [
                0,
                0.03557717800140381,
                0
            ]
        },
        {
            "mesh" : 1,
            "name" : "Cube.001",
            "translation" : [
                0,
                0.014742851257324219,
                0
            ]
        },
        {
            "mesh" : 2,
            "name" : "Cube.002",
            "translation" : [
                0,
                0.014742851257324219,
                0
            ]
        },
        {
            "mesh" : 3,
            "name" : "Cube.003",
            "translation" : [
                0,
                0.014742851257324219,
                0
            ]
        },
        {
            "mesh" : 4,
            "name" : "Cube.004",
            "translation" : [
                0,
                0.014742851257324219,
                0
            ]
        },
        {
            "mesh" : 5,
            "name" : "Cube.005",
            "translation" : [
                0,
                0.014742851257324219,
                0
            ]
        }
    ],
    "materials" : [
        {
            "doubleSided" : true,
            "name" : "gravel",
            "pbrMetallicRoughness" : {
                "baseColorFactor" : [
                    0.800000011920929,
                    0.800000011920929,
                    0.800000011920929,
                    1
                ],
                "metallicFactor" : 0
            }
        },
        {
            "doubleSided" : true,
            "name" : "wood",
            "pbrMetallicRoughness" : {
                "baseColorFactor" : [
                    0.800000011920929,
                    0.800000011920929,
                    0.800000011920929,
                    1
                ],
                "metallicFactor" : 0
            }
        }
    ],
    "meshes" : [
        {
            "name" : "Cube.008",
            "primitives" : [
                {
                    "attributes" : {
                        "POSITION" : 0,
                        "NORMAL" : 1,
                        "TEXCOORD_0" : 2
                    },
                    "indices" : 3,
                    "material" : 0
                }
            ]
        },
        {
            "name" : "Cube.009",
            "primitives" : [
                {
                    "attributes" : {
                        "POSITION" : 4,
                        "NORMAL" : 5,
                        "TEXCOORD_0" : 6
                    },
                    "indices" : 7,
                    "material" : 1
                }
            ]
        },
        {
            "name" : "Cube.010",
            "primitives" : [
                {
                    "attributes" : {
                        "POSITION" : 8,
                        "NORMAL" : 9,
                        "TEXCOORD_0" : 10
                    },
                    "indices" : 11,
                    "material" : 1
                }
            ]
        },
        {
            "name" : "Cube.011",
            "primitives" : [
                {
                    "attributes" : {
                        "POSITION" : 12,
                        "NORMAL" : 13,
                        "TEXCOORD_0" : 14
                    },
                    "indices" : 15,
                    "material" : 1
                }
            ]
        },
        {
            "name" : "Cube.012",
            "primitives" : [
                {
                    "attributes" : {
                        "POSITION" : 16,
                        "NORMAL" : 17,
                        "TEXCOORD_0" : 18
                    },
                    "indices" : 19,
                    "material" : 1
                }
            ]
        },
        {
            "name" : "Cube.013",
            "primitives" : [
                {
                    "attributes" : {
                        "POSITION" : 20,
                        "NORMAL" : 21,
                        "TEXCOORD_0" : 22
                    },
                    "indices" : 23,
                    "material" : 1
                }
            ]
        }
    ],
    "accessors" : [
        {
            "bufferView" : 0,
            "componentType" : 5126,
            "count" : 80,
            "max" : [
                3,
                2,
                0.8999999761581421
            ],
            "min" : [
                -3,
                0,
                -0.8999999761581421
            ],
            "type" : "VEC3"
        },
        {
            "bufferView" : 1,
            "componentType" : 5126,
            "count" : 80,
            "type" : "VEC3"
        },
        {
            "bufferView" : 2,
            "componentType" : 5126,
            "count" : 80,
            "type" : "VEC2"
        },
        {
            "bufferView" : 3,
            "componentType" : 5123,
            "count" : 324,
            "type" : "SCALAR"
        },
        {
            "bufferView" : 4,
            "componentType" : 5126,
            "count" : 88,
            "max" : [
                3.041694164276123,
                2.170536518096924,
                -0.6256136894226074
            ],
            "min" : [
                -3.041694164276123,
                2.0041985511779785,
                -0.9232572317123413
            ],
            "type" : "VEC3"
        },
        {
            "bufferView" : 5,
            "componentType" : 5126,
            "count" : 88,
            "type" : "VEC3"
        },
        {
            "bufferView" : 6,
            "componentType" : 5126,
            "count" : 88,
            "type" : "VEC2"
        },
        {
            "bufferView" : 7,
            "componentType" : 5123,
            "count" : 324,
            "type" : "SCALAR"
        },
        {
            "bufferView" : 8,
            "componentType" : 5126,
            "count" : 86,
            "max" : [
                3.041694164276123,
                2.170536518096924,
                -0.22561372816562653
            ],
            "min" : [
                -3.041694164276123,
                2.0041987895965576,
                -0.5232571959495544
            ],
            "type" : "VEC3"
        },
        {
            "bufferView" : 9,
            "componentType" : 5126,
            "count" : 86,
            "type" : "VEC3"
        },
        {
            "bufferView" : 10,
            "componentType" : 5126,
            "count" : 86,
            "type" : "VEC2"
        },
        {
            "bufferView" : 11,
            "componentType" : 5123,
            "count" : 324,
            "type" : "SCALAR"
        },
        {
            "bufferView" : 12,
            "componentType" : 5126,
            "count" : 87,
            "max" : [
                3.041694164276123,
                2.170536518096924,
                0.17438629269599915
            ],
            "min" : [
                -3.041694164276123,
                2.0041987895965576,
                -0.12325716763734818
            ],
            "type" : "VEC3"
        },
        {
            "bufferView" : 13,
            "componentType" : 5126,
            "count" : 87,
            "type" : "VEC3"
        },
        {
            "bufferView" : 14,
            "componentType" : 5126,
            "count" : 87,
            "type" : "VEC2"
        },
        {
            "bufferView" : 15,
            "componentType" : 5123,
            "count" : 324,
            "type" : "SCALAR"
        },
        {
            "bufferView" : 16,
            "componentType" : 5126,
            "count" : 87,
            "max" : [
                3.041694164276123,
                2.170536518096924,
                0.5743862986564636
            ],
            "min" : [
                -3.041694164276123,
                2.0041987895965576,
                0.2767428159713745
            ],
            "type" : "VEC3"
        },
        {
            "bufferView" : 17,
            "componentType" : 5126,
            "count" : 87,
            "type" : "VEC3"
        },
        {
            "bufferView" : 18,
            "componentType" : 5126,
            "count" : 87,
            "type" : "VEC2"
        },
        {
            "bufferView" : 19,
            "componentType" : 5123,
            "count" : 324,
            "type" : "SCALAR"
        },
        {
            "bufferView" : 20,
            "componentType" : 5126,
            "count" : 85,
            "max" : [
                3.041694164276123,
                2.170536518096924,
                0.9743862748146057
            ],
            "min" : [
                -3.041694164276123,
                2.0041987895965576,
                0.6767428517341614
            ],
            "type" : "VEC3"
        },
        {
            "bufferView" : 21,
            "componentType" : 5126,
            "count" : 85,
            "type" : "VEC3"
        },
        {
            "bufferView" : 22,
            "componentType" : 5126,
            "count" : 85,
            "type" : "VEC2"
        },
        {
            "bufferView" : 23,
            "componentType" : 5123,
            "count" : 324,
            "type" : "SCALAR"
        }
    ],
    "bufferViews" : [
        {
            "buffer" : 0,
            "byteLength" : 960,
            "byteOffset" : 0
        },
        {
            "buffer" : 0,
            "byteLength" : 960,
            "byteOffset" : 960
        },
        {
            "buffer" : 0,
            "byteLength" : 640,
            "byteOffset" : 1920
        },
        {
            "buffer" : 0,
            "byteLength" : 648,
            "byteOffset" : 2560
        },
        {
            "buffer" : 0,
            "byteLength" : 1056,
            "byteOffset" : 3208
        },
        {
            "buffer" : 0,
            "byteLength" : 1056,
            "byteOffset" : 4264
        },
        {
            "buffer" : 0,
            "byteLength" : 704,
            "byteOffset" : 5320
        },
        {
            "buffer" : 0,
            "byteLength" : 648,
            "byteOffset" : 6024
        },
        {
            "buffer" : 0,
            "byteLength" : 1032,
            "byteOffset" : 6672
        },
        {
            "buffer" : 0,
            "byteLength" : 1032,
            "byteOffset" : 7704
        },
        {
            "buffer" : 0,
            "byteLength" : 688,
            "byteOffset" : 8736
        },
        {
            "buffer" : 0,
            "byteLength" : 648,
            "byteOffset" : 9424
        },
        {
            "buffer" : 0,
            "byteLength" : 1044,
            "byteOffset" : 10072
        },
        {
            "buffer" : 0,
            "byteLength" : 1044,
            "byteOffset" : 11116
        },
        {
            "buffer" : 0,
            "byteLength" : 696,
            "byteOffset" : 12160
        },
        {
            "buffer" : 0,
            "byteLength" : 648,
            "byteOffset" : 12856
        },
        {
            "buffer" : 0,
            "byteLength" : 1044,
            "byteOffset" : 13504
        },
        {
            "buffer" : 0,
            "byteLength" : 1044,
            "byteOffset" : 14548
        },
        {
            "buffer" : 0,
            "byteLength" : 696,
            "byteOffset" : 15592
        },
        {
            "buffer" : 0,
            "byteLength" : 648,
            "byteOffset" : 16288
        },
        {
            "buffer" : 0,
            "byteLength" : 1020,
            "byteOffset" : 16936
        },
        {
            "buffer" : 0,
            "byteLength" : 1020,
            "byteOffset" : 17956
        },
        {
            "buffer" : 0,
            "byteLength" : 680,
            "byteOffset" : 18976
        },
        {
            "buffer" : 0,
            "byteLength" : 648,
            "byteOffset" : 19656
        }
    ],
    "buffers" : [
        {
            "byteLength" : 20304,
            "uri" : "data:application/octet-stream;base64,"
        }
    ]
}
