{
    "asset" : {
        "generator" : "Khronos glTF Blender I/O v1.4.40",
        "version" : "2.0"
    },
    "scene" : 0,
    "scenes" : [
        {
            "name" : "Scene",
            "nodes" : [
                2
            ]
        }
    ],
    "nodes" : [
        {
            "mesh" : 0,
            "name" : "LoD_0"
        },
        {
            "mesh" : 1,
            "name" : "LoD_1"
        },
        {
            "children" : [
                0,
                1
            ],
            "name" : "Bench_LoD",
            "rotation" : [
                0.7071068286895752,
                0,
                0,
                0.7071067094802856
            ],
            "scale" : [
                0.009999999776482582,
                0.009999999776482582,
                0.009999999776482582
            ]
        }
    ],
    "materials" : [
        {
            "doubleSided" : true,
            "name" : "lambert2",
            "pbrMetallicRoughness" : {
                "baseColorFactor" : [
                    0.5,
                    0.5,
                    0.5,
                    1
                ],
                "metallicFactor" : 0,
                "roughnessFactor" : 0.5527864098548889
            }
        }
    ],
    "meshes" : [
        {
            "name" : "Mesh",
            "primitives" : [
                {
                    "attributes" : {
                        "POSITION" : 0,
                        "NORMAL" : 1,
                        "TEXCOORD_0" : 2
                    },
                    "indices" : 3,
                    "material" : 0
                }
            ]
        },
        {
            "name" : "Mesh.001",
            "primitives" : [
                {
                    "attributes" : {
                        "POSITION" : 4,
                        "NORMAL" : 5,
                        "TEXCOORD_0" : 6
                    },
                    "indices" : 7,
                    "material" : 0
                }
            ]
        }
    ],
    "accessors" : [
        {
            "bufferView" : 0,
            "componentType" : 5126,
            "count" : 6543,
            "max" : [
                88.04693603515625,
                35.69576644897461,
                -0.09780500084161758
            ],
            "min" : [
                -88.04090118408203,
                -43.71857452392578,
                -96.95028686523438
            ],
            "type" : "VEC3"
        },
        {
            "bufferView" : 1,
            "componentType" : 5126,
            "count" : 6543,
            "type" : "VEC3"
        },
        {
            "bufferView" : 2,
            "componentType" : 5126,
            "count" : 6543,
            "type" : "VEC2"
        },
        {
            "bufferView" : 3,
            "componentType" : 5123,
            "count" : 21528,
            "type" : "SCALAR"
        },
        {
            "bufferView" : 4,
            "componentType" : 5126,
            "count" : 4212,
            "max" : [
                88.26113891601562,
                35.69576644897461,
                -0.09780500084161758
            ],
            "min" : [
                -87.82669067382812,
                -43.71857452392578,
                -96.95028686523438
            ],
            "type" : "VEC3"
        },
        {
            "bufferView" : 5,
            "componentType" : 5126,
            "count" : 4212,
            "type" : "VEC3"
        },
        {
            "bufferView" : 6,
            "componentType" : 5126,
            "count" : 4212,
            "type" : "VEC2"
        },
        {
            "bufferView" : 7,
            "componentType" : 5123,
            "count" : 12840,
            "type" : "SCALAR"
        }
    ],
    "bufferViews" : [
        {
            "buffer" : 0,
            "byteLength" : 78516,
            "byteOffset" : 0
        },
        {
            "buffer" : 0,
            "byteLength" : 78516,
            "byteOffset" : 78516
        },
        {
            "buffer" : 0,
            "byteLength" : 52344,
            "byteOffset" : 157032
        },
        {
            "buffer" : 0,
            "byteLength" : 43056,
            "byteOffset" : 209376
        },
        {
            "buffer" : 0,
            "byteLength" : 50544,
            "byteOffset" : 252432
        },
        {
            "buffer" : 0,
            "byteLength" : 50544,
            "byteOffset" : 302976
        },
        {
            "buffer" : 0,
            "byteLength" : 33696,
            "byteOffset" : 353520
        },
        {
            "buffer" : 0,
            "byteLength" : 25680,
            "byteOffset" : 387216
        }
    ],
    "buffers" : [
        {
            "byteLength" : 412896,
            "uri" : "data:application/octet-stream;base64,"
        }
    ]
}
