{
    "asset" : {
        "generator" : "Khronos glTF Blender I/O v1.4.40",
        "version" : "2.0"
    },
    "scene" : 0,
    "scenes" : [
        {
            "name" : "Scene",
            "nodes" : [
                0,
                1,
                2,
                3
            ]
        }
    ],
    "nodes" : [
        {
            "mesh" : 0,
            "name" : "ChamferBox003",
            "rotation" : [
                0,
                0.17364822328090668,
                0,
                0.9848078489303589
            ],
            "scale" : [
                0.0010000000474974513,
                0.0010000000474974513,
                0.0010000000474974513
            ],
            "translation" : [
                0.017587551847100258,
                0.013213117606937885,
                -0.007781344465911388
            ]
        },
        {
            "mesh" : 1,
            "name" : "ChamferBox004",
            "rotation" : [
                0,
                -0.2164396047592163,
                0,
                0.9762960076332092
            ],
            "scale" : [
                0.0010000000474974513,
                0.0010000000474974513,
                0.0010000000474974513
            ],
            "translation" : [
                0.06075124070048332,
                0.013213117606937885,
                -0.007783293724060059
            ]
        },
        {
            "mesh" : 2,
            "name" : "ChamferBox007",
            "rotation" : [
                0,
                0.17364822328090668,
                0,
                0.9848078489303589
            ],
            "scale" : [
                0.0010000000474974513,
                0.0010000000474974513,
                0.0010000000474974513
            ],
            "translation" : [
                -0.0683041512966156,
                0.013213117606937885,
                -0.011359232477843761
            ]
        },
        {
            "mesh" : 3,
            "name" : "ChamferBox008",
            "rotation" : [
                0,
                -0.2164396047592163,
                0,
                0.9762960076332092
            ],
            "scale" : [
                0.0010000000474974513,
                0.0010000000474974513,
                0.0010000000474974513
            ],
            "translation" : [
                -0.025140466168522835,
                0.013213117606937885,
                -0.011361181735992432
            ]
        }
    ],
    "materials" : [
        {
            "doubleSided" : true,
            "name" : "01 - Defa1ult2",
            "pbrMetallicRoughness" : {
                "baseColorFactor" : [
                    0,
                    0,
                    1,
                    1
                ],
                "roughnessFactor" : 0.5712906122207642
            }
        },
        {
            "doubleSided" : true,
            "name" : "011 - Defa1ult2",
            "pbrMetallicRoughness" : {
                "baseColorFactor" : [
                    0.9411765336990356,
                    0,
                    1,
                    1
                ],
                "roughnessFactor" : 0.5712906122207642
            }
        },
        {
            "doubleSided" : true,
            "name" : "01 - Default",
            "pbrMetallicRoughness" : {
                "baseColorFactor" : [
                    1,
                    0,
                    0,
                    1
                ],
                "roughnessFactor" : 0.5712906122207642
            }
        },
        {
            "doubleSided" : true,
            "name" : "01 - Default2",
            "pbrMetallicRoughness" : {
                "baseColorFactor" : [
                    0.07058823853731155,
                    1,
                    0,
                    1
                ],
                "roughnessFactor" : 0.5712906122207642
            }
        }
    ],
    "meshes" : [
        {
            "name" : "Mesh.002",
            "primitives" : [
                {
                    "attributes" : {
                        "POSITION" : 0,
                        "NORMAL" : 1,
                        "TEXCOORD_0" : 2
                    },
                    "indices" : 3,
                    "material" : 0
                }
            ]
        },
        {
            "name" : "Mesh.003",
            "primitives" : [
                {
                    "attributes" : {
                        "POSITION" : 4,
                        "NORMAL" : 5,
                        "TEXCOORD_0" : 6
                    },
                    "indices" : 3,
                    "material" : 1
                }
            ]
        },
        {
            "name" : "Mesh.004",
            "primitives" : [
                {
                    "attributes" : {
                        "POSITION" : 7,
                        "NORMAL" : 8,
                        "TEXCOORD_0" : 9
                    },
                    "indices" : 3,
                    "material" : 2
                }
            ]
        },
        {
            "name" : "Mesh.005",
            "primitives" : [
                {
                    "attributes" : {
                        "POSITION" : 10,
                        "NORMAL" : 11,
                        "TEXCOORD_0" : 12
                    },
                    "indices" : 3,
                    "material" : 3
                }
            ]
        }
    ],
    "accessors" : [
        {
            "bufferView" : 0,
            "componentType" : 5126,
            "count" : 3364,
            "max" : [
                25.422016143798828,
                10.931228637695312,
                2.674816131591797
            ],
            "min" : [
                -20.730884552001953,
                -13.409571647644043,
                -0.9435334205627441
            ],
            "type" : "VEC3"
        },
        {
            "bufferView" : 1,
            "componentType" : 5126,
            "count" : 3364,
            "type" : "VEC3"
        },
        {
            "bufferView" : 2,
            "componentType" : 5126,
            "count" : 3364,
            "type" : "VEC2"
        },
        {
            "bufferView" : 3,
            "componentType" : 5123,
            "count" : 16584,
            "type" : "SCALAR"
        },
        {
            "bufferView" : 4,
            "componentType" : 5126,
            "count" : 3364,
            "max" : [
                25.422016143798828,
                10.931228637695312,
                2.674816131591797
            ],
            "min" : [
                -20.730884552001953,
                -13.409571647644043,
                -0.9435334205627441
            ],
            "type" : "VEC3"
        },
        {
            "bufferView" : 5,
            "componentType" : 5126,
            "count" : 3364,
            "type" : "VEC3"
        },
        {
            "bufferView" : 6,
            "componentType" : 5126,
            "count" : 3364,
            "type" : "VEC2"
        },
        {
            "bufferView" : 7,
            "componentType" : 5126,
            "count" : 3364,
            "max" : [
                25.422016143798828,
                10.931228637695312,
                2.674816131591797
            ],
            "min" : [
                -20.730884552001953,
                -13.409571647644043,
                -0.9435334205627441
            ],
            "type" : "VEC3"
        },
        {
            "bufferView" : 8,
            "componentType" : 5126,
            "count" : 3364,
            "type" : "VEC3"
        },
        {
            "bufferView" : 9,
            "componentType" : 5126,
            "count" : 3364,
            "type" : "VEC2"
        },
        {
            "bufferView" : 10,
            "componentType" : 5126,
            "count" : 3364,
            "max" : [
                25.422016143798828,
                10.931228637695312,
                2.674816131591797
            ],
            "min" : [
                -20.730884552001953,
                -13.409571647644043,
                -0.9435334205627441
            ],
            "type" : "VEC3"
        },
        {
            "bufferView" : 11,
            "componentType" : 5126,
            "count" : 3364,
            "type" : "VEC3"
        },
        {
            "bufferView" : 12,
            "componentType" : 5126,
            "count" : 3364,
            "type" : "VEC2"
        }
    ],
    "bufferViews" : [
        {
            "buffer" : 0,
            "byteLength" : 40368,
            "byteOffset" : 0
        },
        {
            "buffer" : 0,
            "byteLength" : 40368,
            "byteOffset" : 40368
        },
        {
            "buffer" : 0,
            "byteLength" : 26912,
            "byteOffset" : 80736
        },
        {
            "buffer" : 0,
            "byteLength" : 33168,
            "byteOffset" : 107648
        },
        {
            "buffer" : 0,
            "byteLength" : 40368,
            "byteOffset" : 140816
        },
        {
            "buffer" : 0,
            "byteLength" : 40368,
            "byteOffset" : 181184
        },
        {
            "buffer" : 0,
            "byteLength" : 26912,
            "byteOffset" : 221552
        },
        {
            "buffer" : 0,
            "byteLength" : 40368,
            "byteOffset" : 248464
        },
        {
            "buffer" : 0,
            "byteLength" : 40368,
            "byteOffset" : 288832
        },
        {
            "buffer" : 0,
            "byteLength" : 26912,
            "byteOffset" : 329200
        },
        {
            "buffer" : 0,
            "byteLength" : 40368,
            "byteOffset" : 356112
        },
        {
            "buffer" : 0,
            "byteLength" : 40368,
            "byteOffset" : 396480
        },
        {
            "buffer" : 0,
            "byteLength" : 26912,
            "byteOffset" : 436848
        }
    ],
    "buffers" : [
        {
            "byteLength" : 463760,
            "uri" : "data:application/octet-stream;base64,"
        }
    ]
}
