{
    "asset" : {
        "generator" : "Khronos glTF Blender I/O v1.4.40",
        "version" : "2.0"
    },
    "scene" : 0,
    "scenes" : [
        {
            "name" : "Scene",
            "nodes" : [
                0,
                1,
                2,
                5,
                6,
                7
            ]
        }
    ],
    "nodes" : [
        {
            "mesh" : 0,
            "name" : "Plane.002",
            "rotation" : [
                1,
                0,
                0,
                7.549790126404332e-08
            ],
            "scale" : [
                2.4024548530578613,
                2.4024548530578613,
                2.4024548530578613
            ],
            "translation" : [
                0.013249925337731838,
                4.615152835845947,
                -0.12635421752929688
            ]
        },
        {
            "mesh" : 1,
            "name" : "Plane.001",
            "rotation" : [
                0.7071067690849304,
                0,
                0,
                0.7071068286895752
            ],
            "translation" : [
                0.013249925337731838,
                0.9928135871887207,
                2.597020149230957
            ]
        },
        {
            "mesh" : 2,
            "name" : "Plane",
            "scale" : [
                5.44181489944458,
                5.44181489944458,
                5.44181489944458
            ],
            "translation" : [
                0.013249925337731838,
                0,
                0.0001427722891094163
            ]
        },
        {
            "mesh" : 3,
            "name" : "Steel"
        },
        {
            "mesh" : 4,
            "name" : "Woods",
            "translation" : [
                0.24743421375751495,
                0.383987158536911,
                -0.0001427722891094163
            ]
        },
        {
            "children" : [
                3,
                4
            ],
            "name" : "ParkBench",
            "translation" : [
                0.013249925337731838,
                0,
                0.0001427722891094163
            ]
        },
        {
            "name" : "Lamp",
            "rotation" : [
                0.16907575726509094,
                0.7558803558349609,
                -0.27217137813568115,
                0.570947527885437
            ],
            "translation" : [
                4.076245307922363,
                5.903861999511719,
                -1.0054539442062378
            ]
        },
        {
            "name" : "Camera",
            "rotation" : [
                0.6232202649116516,
                0.22738072276115417,
                -0.205196350812912,
                0.7195756435394287
            ],
            "translation" : [
                1.783482551574707,
                0.9252759218215942,
                2.7815284729003906
            ]
        }
    ],
    "materials" : [
        {
            "doubleSided" : true,
            "emissiveFactor" : [
                1,
                1,
                1
            ],
            "name" : "emision1",
            "pbrMetallicRoughness" : {}
        },
        {
            "doubleSided" : true,
            "name" : "Steel",
            "pbrMetallicRoughness" : {}
        },
        {
            "doubleSided" : true,
            "name" : "woods",
            "pbrMetallicRoughness" : {}
        }
    ],
    "meshes" : [
        {
            "name" : "Plane.006",
            "primitives" : [
                {
                    "attributes" : {
                        "POSITION" : 0,
                        "NORMAL" : 1
                    },
                    "indices" : 2,
                    "material" : 0
                }
            ]
        },
        {
            "name" : "Plane.005",
            "primitives" : [
                {
                    "attributes" : {
                        "POSITION" : 3,
                        "NORMAL" : 4
                    },
                    "indices" : 2,
                    "material" : 0
                }
            ]
        },
        {
            "name" : "Plane",
            "primitives" : [
                {
                    "attributes" : {
                        "POSITION" : 5,
                        "NORMAL" : 6
                    },
                    "indices" : 7
                }
            ]
        },
        {
            "name" : "Steel",
            "primitives" : [
                {
                    "attributes" : {
                        "POSITION" : 8,
                        "NORMAL" : 9
                    },
                    "indices" : 10,
                    "material" : 1
                }
            ]
        },
        {
            "name" : "Woods",
            "primitives" : [
                {
                    "attributes" : {
                        "POSITION" : 11,
                        "NORMAL" : 12,
                        "TEXCOORD_0" : 13
                    },
                    "indices" : 14,
                    "material" : 2
                }
            ]
        }
    ],
    "accessors" : [
        {
            "bufferView" : 0,
            "componentType" : 5126,
            "count" : 4,
            "max" : [
                1,
                0,
                1
            ],
            "min" : [
                -1,
                0,
                -1
            ],
            "type" : "VEC3"
        },
        {
            "bufferView" : 1,
            "componentType" : 5126,
            "count" : 4,
            "type" : "VEC3"
        },
        {
            "bufferView" : 2,
            "componentType" : 5123,
            "count" : 6,
            "type" : "SCALAR"
        },
        {
            "bufferView" : 3,
            "componentType" : 5126,
            "count" : 4,
            "max" : [
                1,
                0,
                1
            ],
            "min" : [
                -1,
                0,
                -1
            ],
            "type" : "VEC3"
        },
        {
            "bufferView" : 4,
            "componentType" : 5126,
            "count" : 4,
            "type" : "VEC3"
        },
        {
            "bufferView" : 5,
            "componentType" : 5126,
            "count" : 56,
            "max" : [
                1.3261876106262207,
                0.6369930505752563,
                1.3261876106262207
            ],
            "min" : [
                -1.3261876106262207,
                0,
                -1.3261876106262207
            ],
            "type" : "VEC3"
        },
        {
            "bufferView" : 6,
            "componentType" : 5126,
            "count" : 56,
            "type" : "VEC3"
        },
        {
            "bufferView" : 7,
            "componentType" : 5123,
            "count" : 282,
            "type" : "SCALAR"
        },
        {
            "bufferView" : 8,
            "componentType" : 5126,
            "count" : 64886,
            "max" : [
                0.3199178874492645,
                0.9253337383270264,
                0.7871595025062561
            ],
            "min" : [
                -0.5065685510635376,
                -4.6566128730773926e-08,
                -0.7871620059013367
            ],
            "type" : "VEC3"
        },
        {
            "bufferView" : 9,
            "componentType" : 5126,
            "count" : 64886,
            "type" : "VEC3"
        },
        {
            "bufferView" : 10,
            "componentType" : 5123,
            "count" : 383904,
            "type" : "SCALAR"
        },
        {
            "bufferView" : 11,
            "componentType" : 5126,
            "count" : 240,
            "max" : [
                0.04945460706949234,
                0.4914241135120392,
                0.7500001192092896
            ],
            "min" : [
                -0.7004960179328918,
                -0.03803873062133789,
                -0.75
            ],
            "type" : "VEC3"
        },
        {
            "bufferView" : 12,
            "componentType" : 5126,
            "count" : 240,
            "type" : "VEC3"
        },
        {
            "bufferView" : 13,
            "componentType" : 5126,
            "count" : 240,
            "type" : "VEC2"
        },
        {
            "bufferView" : 14,
            "componentType" : 5123,
            "count" : 360,
            "type" : "SCALAR"
        }
    ],
    "bufferViews" : [
        {
            "buffer" : 0,
            "byteLength" : 48,
            "byteOffset" : 0
        },
        {
            "buffer" : 0,
            "byteLength" : 48,
            "byteOffset" : 48
        },
        {
            "buffer" : 0,
            "byteLength" : 12,
            "byteOffset" : 96
        },
        {
            "buffer" : 0,
            "byteLength" : 48,
            "byteOffset" : 108
        },
        {
            "buffer" : 0,
            "byteLength" : 48,
            "byteOffset" : 156
        },
        {
            "buffer" : 0,
            "byteLength" : 672,
            "byteOffset" : 204
        },
        {
            "buffer" : 0,
            "byteLength" : 672,
            "byteOffset" : 876
        },
        {
            "buffer" : 0,
            "byteLength" : 564,
            "byteOffset" : 1548
        },
        {
            "buffer" : 0,
            "byteLength" : 778632,
            "byteOffset" : 2112
        },
        {
            "buffer" : 0,
            "byteLength" : 778632,
            "byteOffset" : 780744
        },
        {
            "buffer" : 0,
            "byteLength" : 767808,
            "byteOffset" : 1559376
        },
        {
            "buffer" : 0,
            "byteLength" : 2880,
            "byteOffset" : 2327184
        },
        {
            "buffer" : 0,
            "byteLength" : 2880,
            "byteOffset" : 2330064
        },
        {
            "buffer" : 0,
            "byteLength" : 1920,
            "byteOffset" : 2332944
        },
        {
            "buffer" : 0,
            "byteLength" : 720,
            "byteOffset" : 2334864
        }
    ],
    "buffers" : [
        {
            "byteLength" : 2335584,
            "uri" : "data:application/octet-stream;base64,"
        }
    ]
}
