{
    "asset" : {
        "generator" : "Khronos glTF Blender I/O v1.4.40",
        "version" : "2.0"
    },
    "scene" : 0,
    "scenes" : [
        {
            "name" : "Scene",
            "nodes" : [
                0
            ]
        }
    ],
    "nodes" : [
        {
            "mesh" : 0,
            "name" : "Slide",
            "rotation" : [
                0.7071068286895752,
                0,
                0,
                0.7071067094802856
            ],
            "scale" : [
                0.009999999776482582,
                0.009999999776482582,
                0.009999999776482582
            ]
        }
    ],
    "materials" : [
        {
            "doubleSided" : true,
            "name" : "Plastic_Yellow",
            "pbrMetallicRoughness" : {
                "baseColorFactor" : [
                    0.9779999852180481,
                    0.9779999852180481,
                    0.021516013890504837,
                    1
                ],
                "metallicFactor" : 0.10000000149011612,
                "roughnessFactor" : 0.6837722063064575
            }
        },
        {
            "doubleSided" : true,
            "name" : "Metal_Red",
            "pbrMetallicRoughness" : {
                "baseColorFactor" : [
                    0.9440000057220459,
                    0,
                    0,
                    1
                ],
                "metallicFactor" : 0.30000001192092896,
                "roughnessFactor" : 0.800000011920929
            }
        },
        {
            "doubleSided" : true,
            "name" : "Plastic_Blue",
            "pbrMetallicRoughness" : {
                "baseColorFactor" : [
                    0.09221798926591873,
                    0.5166090130805969,
                    0.9409999847412109,
                    1
                ],
                "metallicFactor" : 0.10000000149011612,
                "roughnessFactor" : 0.6837722063064575
            }
        },
        {
            "doubleSided" : true,
            "name" : "Metal_Green",
            "pbrMetallicRoughness" : {
                "baseColorFactor" : [
                    0,
                    0.3089999854564667,
                    0,
                    1
                ],
                "metallicFactor" : 0.30000001192092896,
                "roughnessFactor" : 0.800000011920929
            }
        },
        {
            "doubleSided" : true,
            "name" : "Metal_Grey",
            "pbrMetallicRoughness" : {
                "baseColorFactor" : [
                    0.43901732563972473,
                    0.43901732563972473,
                    0.43901732563972473,
                    1
                ],
                "metallicFactor" : 0.30000001192092896,
                "roughnessFactor" : 0.7550510168075562
            }
        }
    ],
    "meshes" : [
        {
            "name" : "Mesh",
            "primitives" : [
                {
                    "attributes" : {
                        "POSITION" : 0,
                        "NORMAL" : 1,
                        "TEXCOORD_0" : 2
                    },
                    "indices" : 3,
                    "material" : 0
                },
                {
                    "attributes" : {
                        "POSITION" : 4,
                        "NORMAL" : 5,
                        "TEXCOORD_0" : 6
                    },
                    "indices" : 7,
                    "material" : 1
                },
                {
                    "attributes" : {
                        "POSITION" : 8,
                        "NORMAL" : 9,
                        "TEXCOORD_0" : 10
                    },
                    "indices" : 11,
                    "material" : 2
                },
                {
                    "attributes" : {
                        "POSITION" : 12,
                        "NORMAL" : 13,
                        "TEXCOORD_0" : 14
                    },
                    "indices" : 15,
                    "material" : 3
                },
                {
                    "attributes" : {
                        "POSITION" : 16,
                        "NORMAL" : 17,
                        "TEXCOORD_0" : 18
                    },
                    "indices" : 19,
                    "material" : 4
                }
            ]
        }
    ],
    "accessors" : [
        {
            "bufferView" : 0,
            "componentType" : 5126,
            "count" : 9090,
            "max" : [
                32.1680908203125,
                233.92388916015625,
                0.13032840192317963
            ],
            "min" : [
                -32.1680908203125,
                4.255196571350098,
                -168.47154235839844
            ],
            "type" : "VEC3"
        },
        {
            "bufferView" : 1,
            "componentType" : 5126,
            "count" : 9090,
            "type" : "VEC3"
        },
        {
            "bufferView" : 2,
            "componentType" : 5126,
            "count" : 9090,
            "type" : "VEC2"
        },
        {
            "bufferView" : 3,
            "componentType" : 5123,
            "count" : 54528,
            "type" : "SCALAR"
        },
        {
            "bufferView" : 4,
            "componentType" : 5126,
            "count" : 1250,
            "max" : [
                19.59447479248047,
                7.285650253295898,
                10.657631874084473
            ],
            "min" : [
                -19.59447479248047,
                -0.1077229380607605,
                -148.5634002685547
            ],
            "type" : "VEC3"
        },
        {
            "bufferView" : 5,
            "componentType" : 5126,
            "count" : 1250,
            "type" : "VEC3"
        },
        {
            "bufferView" : 6,
            "componentType" : 5126,
            "count" : 1250,
            "type" : "VEC2"
        },
        {
            "bufferView" : 7,
            "componentType" : 5123,
            "count" : 6912,
            "type" : "SCALAR"
        },
        {
            "bufferView" : 8,
            "componentType" : 5126,
            "count" : 5313,
            "max" : [
                26.16058349609375,
                4.052085876464844,
                -0.35076797008514404
            ],
            "min" : [
                -26.16058349609375,
                -128.85130310058594,
                -154.84617614746094
            ],
            "type" : "VEC3"
        },
        {
            "bufferView" : 9,
            "componentType" : 5126,
            "count" : 5313,
            "type" : "VEC3"
        },
        {
            "bufferView" : 10,
            "componentType" : 5126,
            "count" : 5313,
            "type" : "VEC2"
        },
        {
            "bufferView" : 11,
            "componentType" : 5123,
            "count" : 29232,
            "type" : "SCALAR"
        },
        {
            "bufferView" : 12,
            "componentType" : 5126,
            "count" : 874,
            "max" : [
                31.696996688842773,
                5.000003337860107,
                1.359223484992981
            ],
            "min" : [
                -31.696996688842773,
                -128.61331176757812,
                -170.97067260742188
            ],
            "type" : "VEC3"
        },
        {
            "bufferView" : 13,
            "componentType" : 5126,
            "count" : 874,
            "type" : "VEC3"
        },
        {
            "bufferView" : 14,
            "componentType" : 5126,
            "count" : 874,
            "type" : "VEC2"
        },
        {
            "bufferView" : 15,
            "componentType" : 5123,
            "count" : 3192,
            "type" : "SCALAR"
        },
        {
            "bufferView" : 16,
            "componentType" : 5126,
            "count" : 4712,
            "max" : [
                32.46031951904297,
                13.32699966430664,
                -1.0933752059936523
            ],
            "min" : [
                -32.46031951904297,
                -119.17225646972656,
                -156.0367431640625
            ],
            "type" : "VEC3"
        },
        {
            "bufferView" : 17,
            "componentType" : 5126,
            "count" : 4712,
            "type" : "VEC3"
        },
        {
            "bufferView" : 18,
            "componentType" : 5126,
            "count" : 4712,
            "type" : "VEC2"
        },
        {
            "bufferView" : 19,
            "componentType" : 5123,
            "count" : 23124,
            "type" : "SCALAR"
        }
    ],
    "bufferViews" : [
        {
            "buffer" : 0,
            "byteLength" : 109080,
            "byteOffset" : 0
        },
        {
            "buffer" : 0,
            "byteLength" : 109080,
            "byteOffset" : 109080
        },
        {
            "buffer" : 0,
            "byteLength" : 72720,
            "byteOffset" : 218160
        },
        {
            "buffer" : 0,
            "byteLength" : 109056,
            "byteOffset" : 290880
        },
        {
            "buffer" : 0,
            "byteLength" : 15000,
            "byteOffset" : 399936
        },
        {
            "buffer" : 0,
            "byteLength" : 15000,
            "byteOffset" : 414936
        },
        {
            "buffer" : 0,
            "byteLength" : 10000,
            "byteOffset" : 429936
        },
        {
            "buffer" : 0,
            "byteLength" : 13824,
            "byteOffset" : 439936
        },
        {
            "buffer" : 0,
            "byteLength" : 63756,
            "byteOffset" : 453760
        },
        {
            "buffer" : 0,
            "byteLength" : 63756,
            "byteOffset" : 517516
        },
        {
            "buffer" : 0,
            "byteLength" : 42504,
            "byteOffset" : 581272
        },
        {
            "buffer" : 0,
            "byteLength" : 58464,
            "byteOffset" : 623776
        },
        {
            "buffer" : 0,
            "byteLength" : 10488,
            "byteOffset" : 682240
        },
        {
            "buffer" : 0,
            "byteLength" : 10488,
            "byteOffset" : 692728
        },
        {
            "buffer" : 0,
            "byteLength" : 6992,
            "byteOffset" : 703216
        },
        {
            "buffer" : 0,
            "byteLength" : 6384,
            "byteOffset" : 710208
        },
        {
            "buffer" : 0,
            "byteLength" : 56544,
            "byteOffset" : 716592
        },
        {
            "buffer" : 0,
            "byteLength" : 56544,
            "byteOffset" : 773136
        },
        {
            "buffer" : 0,
            "byteLength" : 37696,
            "byteOffset" : 829680
        },
        {
            "buffer" : 0,
            "byteLength" : 46248,
            "byteOffset" : 867376
        }
    ],
    "buffers" : [
        {
            "byteLength" : 913624,
            "uri" : "data:application/octet-stream;base64,"
        }
    ]
}
